PathFileType	4	(X/Y/Z)	9_coords_data.trc
DataRate	CameraRate	NumFrames	NumMarkers	Units	OrigDataRate	OrigDataStartFrame	OrigNumFrames
30.0	30.0	7	21	m	30.0	1	47
Frame#	Time	THUMB_TIP	THUMB_IP	THUMB_MCP	THUMB_CMC	INDEX_TIP	INDEX_DIP	INDEX_PIP	INDEX_MCP	MIDDLE_TIP	MIDDLE_DIP	MIDDLE_PIP	MIDDLE_MCP	RING_TIP	RING_DIP	RING_PIP	RING_MCP	PINKY_TIP	PINKY_DIP	PINKY_PIP	PINKY_MCP	WRIST
X1	Y1	Z1	X2	Y2	Z2	X3	Y3	Z3	X4	Y4	Z4	X5	Y5	Z5	X6	Y6	Z6	X7	Y7	Z7	X8	Y8	Z8	X9	Y9	Z9	X10	Y10	Z10	X11	Y11	Z11	X12	Y12	Z12	X13	Y13	Z13	X14	Y14	Z14	X15	Y15	Z15	X16	Y16	Z16	X17	Y17	Z17	X18	Y18	Z18	X19	Y19	Z19	X20	Y20	Z20	X21	Y21	Z21
0	-2.749317978547796e-18	0.542887501933237	-0.029108378373376237	-0.1389708298848002	0.5209740658359978	-0.029376262484822196	-0.13206217180127533	0.49579839807456216	-0.02257706174398144	-0.11506874301095876	0.4765957080254124	-0.03060791269178892	-0.07561431198058671	0.5412428116609039	0.08128571382721184	-0.15707718954622651	0.5343548318498161	0.06709830723797328	-0.14817363809786152	0.5231467585385398	0.04987984607732743	-0.13368524547105912	0.5064486855590853	0.01738478646687136	-0.1118018829852406	0.5407188836238669	-0.026007109577233067	-0.1286097642268348	0.5420776206725824	-0.00809066417611598	-0.12633934183854692	0.5485512033729374	0.019950247539452126	-0.12173395942430787	0.5201154140224894	0.02229293053678566	-0.08735277792350798	0.5424835012754701	-0.02939987800508098	-0.11853824835591295	0.5538269123952297	-0.016274791074599976	-0.1136332389537372	0.5623163951449773	0.003468415514929213	-0.10105093172473847	0.5320089318936454	0.009033161391951927	-0.07487437525538371	0.5991156196770157	0.02267097608348767	-0.05988727787726089	0.5846400115386396	0.01355160654282761	-0.05934518175565495	0.5656283810723625	0.004734019444362969	-0.058072356640128664	0.534551602594588	-0.012790030792905083	-0.063366216642531	0.462283081001861	-0.023011742144276898	-0.051989820119430985
1	0.03333333333333339	0.5432599104791449	-0.02914687421783363	-0.13894418070740314	0.5213910203744692	-0.029007997161869914	-0.13189206338329793	0.4960081918725747	-0.022473318893615618	-0.1151042702831368	0.47625095646130355	-0.030364047246128623	-0.07589613267153306	0.5415612089395508	0.08117064018331249	-0.15711726263373774	0.5344241964467695	0.06697488728308698	-0.1484256774921412	0.523162089305134	0.049954269982442345	-0.13374666654332987	0.5065764460210653	0.017612834920495257	-0.11155243060271933	0.5402904301846021	-0.02637105663188949	-0.12878251804418192	0.5421087140140086	-0.008514321549708104	-0.12636780147271634	0.5488066379606356	0.01950586240587998	-0.12196136800559032	0.5198534543678828	0.022090598416221352	-0.08803232114893372	0.5429427206892024	-0.02914604192059314	-0.11850004187712432	0.5542259123756307	-0.01601129656603842	-0.11348326503952055	0.5624472134874084	0.0038539150833656333	-0.1009149098108573	0.5321407260739417	0.008915720014782136	-0.07463534007515438	0.5993846246524267	0.022163611740821376	-0.05951495857032213	0.5847810368098431	0.013254196548684483	-0.05891700952728823	0.5656726909832603	0.004608840109285084	-0.05794698333823489	0.5345786706068861	-0.012875622546455245	-0.06327041394956529	0.462283081001861	-0.023011742144276925	-0.051989820119430985
2	0.06666666666666676	0.5435035374001504	-0.029215539492528975	-0.13893481857302184	0.5216794180272886	-0.028760088554188074	-0.13175844218644353	0.4961467048634576	-0.02241258972970009	-0.11512685124731045	0.47596739080780437	-0.030191095715440458	-0.07611172432360153	0.5418325929129812	0.08098696521153148	-0.1572224444879566	0.5344916745554268	0.06680644223469945	-0.1486770547501353	0.5231710077076613	0.04996021142651913	-0.13384274173336855	0.5066563619202749	0.017759371900626097	-0.11139260805125309	0.5399607221016561	-0.026672301408917715	-0.12892727628868944	0.5421215657177039	-0.008868743832249282	-0.12640456098940633	0.549007948650581	0.019128353705413992	-0.12214430165829138	0.5196488587457165	0.02190871083779411	-0.0885815041709763	0.5432654005041586	-0.02898346490215864	-0.11849799328032073	0.5545020954122194	-0.015845157549817135	-0.11338706699846446	0.5625399723577186	0.004102991574729764	-0.10083143640044764	0.5322376638476903	0.008812007811273503	-0.07448155786093552	0.5996995555683028	0.021541389949961964	-0.059236985576620105	0.5849710626891989	0.012842857895319748	-0.05859899058875356	0.5657639170614094	0.004396965454811108	-0.05784767393364176	0.534600251736868	-0.012953645464425179	-0.06320171122051721	0.462283081001861	-0.023011742144276898	-0.051989820119430985
3	0.10000000000000014	0.5436379769267045	-0.029308789000057206	-0.13894955652385485	0.5218555713035244	-0.028616261846747787	-0.13166620486344574	0.49622126028627545	-0.0223879069532327	-0.11514622623175921	0.47574197981151034	-0.03008064231114249	-0.07627064399883227	0.54207629140332	0.08074231307414592	-0.15738338798018406	0.5345685077520727	0.0665964663461478	-0.14892595308572282	0.5231830194516491	0.049905802181908876	-0.13396593239999144	0.5066990037010255	0.017834152374833212	-0.11130930870215197	0.5397153006639328	-0.026922457054222276	-0.12906001570303396	0.5421199385313112	-0.009161411179933798	-0.12645944534671028	0.5491619231183295	0.018811642968254494	-0.1222967245178862	0.519498020862656	0.021744646335910223	-0.08901612483562124	0.5434725176000273	-0.028905000681191645	-0.11852757809683095	0.5546757434300259	-0.01576856824801151	-0.113338948804759	0.562603497079436	0.004230400560856773	-0.10079415117162915	0.5323057173708625	0.008719265857656922	-0.07440067722298166	0.6000492859212054	0.020827760605296508	-0.05903872637014668	0.5852005037326089	0.012338218191521422	-0.058374394284265774	0.565893328891617	0.004111467024194071	-0.05776975894768033	0.5346175962418926	-0.013026566157878172	-0.06315490675188801	0.4622830810018608	-0.023011742144276925	-0.051989820119430985
4	0.13333333333333353	0.5436828022865745	-0.029421818028366742	-0.13898956419863068	0.5219371446358841	-0.02856078669596529	-0.13161494567401583	0.49624160497049163	-0.022393066594693672	-0.11516749997394979	0.475570837011311	-0.030023779884619017	-0.07638114197703721	0.5423100665716701	0.08044287518082183	-0.15758903872682153	0.5346651094386019	0.06634817481657523	-0.149169178153412	0.5232069946472923	0.04979852998924128	-0.1341082786278767	0.506714715093648	0.017846785428676848	-0.11128883891825861	0.5395422658505876	-0.02713111554061992	-0.12918915977967255	0.5421085566269029	-0.009400567603870535	-0.1265355167151234	0.5492768571338204	0.018548368646886637	-0.12242674800739095	0.5193973454495544	0.02159560266247712	-0.08934991219493701	0.5435832746608096	-0.028901788412139584	-0.11858223102514734	0.5547651152733633	-0.015772032214066867	-0.11333095092457976	0.5626450859077999	0.004251328981012603	-0.10079496080605285	0.5323507605378315	0.008634484979784529	-0.07437976389463602	0.6004213615119596	0.020046244446751627	-0.05890667635278596	0.5854583080515676	0.011760974234355515	-0.05822746456767591	0.566051492794716	0.0037660701008574993	-0.05770876573154737	0.5346318682865353	-0.01309677299204276	-0.06312496085258595	0.4622830810018608	-0.023011742144276925	-0.051989820119430985
5	0.1666666666666669	0.5436575134704734	-0.02955039125349676	-0.13905166230446822	0.5219427503801266	-0.028578445564652527	-0.13160019362319136	0.4962192261075937	-0.02242247245279705	-0.11519213785638813	0.47544947723287545	-0.03001124805271907	-0.07645045466405415	0.5425505015498614	0.08009382155010453	-0.15782720557841212	0.5347912878565737	0.06606456666117655	-0.1494025625519457	0.5232513410572321	0.04964539534938567	-0.13426154956395747	0.5067136979487561	0.017806800212596174	-0.11131713163426732	0.5394317347989102	-0.027306589441633722	-0.12931719234298442	0.5420927895039026	-0.00959499485621601	-0.12663052059175786	0.5493621072455173	0.01833020046717798	-0.12253783984171815	0.5193432566068116	0.02145865378114603	-0.08959502109174758	0.543615624787733	-0.028963809093380533	-0.11865400223744432	0.5547870230744715	-0.015844924952444384	-0.1133535551604751	0.5626709926205377	0.004181236518701836	-0.10082455440509633	0.5323786203776489	0.008554485481716056	-0.07440547585557528	0.6008029207734935	0.019220630651075155	-0.058828127803750074	0.5857328579555809	0.011132121773317016	-0.05814312357121171	0.5662288227857118	0.0033750930868838847	-0.057660280894590965	0.5346441758258126	-0.013166598449081024	-0.06310692835403992	0.462283081001861	-0.023011742144276925	-0.051989820119430985
6	0.20000000000000023	0.5435814483978956	-0.029690608317442108	-0.1391296466426385	0.5218915568504464	-0.028654388767960642	-0.13161467134626065	0.4961667013872575	-0.022470920558988694	-0.1152190459447496	0.4753729977319192	-0.030033518022283184	-0.07648509432730999	0.5428133406608875	0.07969964932562246	-0.15808496091441893	0.53495642171738	0.06574848624753887	-0.14962128124870203	0.523324155097677	0.04945304990545263	-0.13441736857106673	0.5067060820582483	0.017723700776131057	-0.11137991762080227	0.5393752644655033	-0.027456434393149765	-0.1294422174925214	0.5420784132092831	-0.009753845487775359	-0.12673826983838357	0.549427738795806	0.01814810816964879	-0.12262999215518885	0.519332183854023	0.021330788337248385	-0.08976243914774831	0.5435867493375786	-0.02908028835840637	-0.11873411520953045	0.5547573611879321	-0.01597589899099422	-0.11339628698112125	0.5626868437219585	0.004035775919813134	-0.10087286280852628	0.5323951182968055	0.008475983413887334	-0.07446421342661502	0.6011814145199545	0.018375065781285116	-0.0587908709425059	0.5860126820805527	0.01047307396388475	-0.05810670612348945	0.5664160289998956	0.002953355114326872	-0.0576198432475431	0.5346555917207911	-0.013238333940422675	-0.06309590756367212	0.4622830810018608	-0.023011742144276925	-0.051989820119430985
